<?xml version="1.0" encoding="utf-8" standalone="no"?>
<!DOCTYPE svg PUBLIC "-//W3C//DTD SVG 1.1//EN"
  "http://www.w3.org/Graphics/SVG/1.1/DTD/svg11.dtd">
<!-- Created with matplotlib (https://matplotlib.org/) -->
<svg height="262.19625pt" version="1.1" viewBox="0 0 416.109384 262.19625" width="416.109384pt" xmlns="http://www.w3.org/2000/svg" xmlns:xlink="http://www.w3.org/1999/xlink">
 <metadata>
  <rdf:RDF xmlns:cc="http://creativecommons.org/ns#" xmlns:dc="http://purl.org/dc/elements/1.1/" xmlns:rdf="http://www.w3.org/1999/02/22-rdf-syntax-ns#">
   <cc:Work>
    <dc:type rdf:resource="http://purl.org/dc/dcmitype/StillImage"/>
    <dc:date>2020-10-25T17:10:49.849402</dc:date>
    <dc:format>image/svg+xml</dc:format>
    <dc:creator>
     <cc:Agent>
      <dc:title>Matplotlib v3.3.2, https://matplotlib.org/</dc:title>
     </cc:Agent>
    </dc:creator>
   </cc:Work>
  </rdf:RDF>
 </metadata>
 <defs>
  <style type="text/css">*{stroke-linecap:butt;stroke-linejoin:round;}</style>
 </defs>
 <g id="figure_1">
  <g id="patch_1">
   <path d="M 0 262.19625 
L 416.109384 262.19625 
L 416.109384 0 
L 0 0 
z
" style="fill:none;"/>
  </g>
  <g id="axes_1">
   <g id="patch_2">
    <path d="M 66.053125 224.64 
L 400.853125 224.64 
L 400.853125 7.2 
L 66.053125 7.2 
z
" style="fill:#ffffff;"/>
   </g>
   <g id="patch_3">
    <path clip-path="url(#p249f214828)" d="M 81.271307 224.64 
L 84.314943 224.64 
L 84.314943 224.571119 
L 81.271307 224.571119 
z
" style="fill:#1f77b4;fill-opacity:0.75;stroke:#000000;stroke-linejoin:miter;stroke-width:0.304364;"/>
   </g>
   <g id="patch_4">
    <path clip-path="url(#p249f214828)" d="M 84.314943 224.64 
L 87.35858 224.64 
L 87.35858 219.252913 
L 84.314943 219.252913 
z
" style="fill:#1f77b4;fill-opacity:0.75;stroke:#000000;stroke-linejoin:miter;stroke-width:0.304364;"/>
   </g>
   <g id="patch_5">
    <path clip-path="url(#p249f214828)" d="M 87.35858 224.64 
L 90.402216 224.64 
L 90.402216 205.670393 
L 87.35858 205.670393 
z
" style="fill:#1f77b4;fill-opacity:0.75;stroke:#000000;stroke-linejoin:miter;stroke-width:0.304364;"/>
   </g>
   <g id="patch_6">
    <path clip-path="url(#p249f214828)" d="M 90.402216 224.64 
L 93.445852 224.64 
L 93.445852 121.409978 
L 90.402216 121.409978 
z
" style="fill:#1f77b4;fill-opacity:0.75;stroke:#000000;stroke-linejoin:miter;stroke-width:0.304364;"/>
   </g>
   <g id="patch_7">
    <path clip-path="url(#p249f214828)" d="M 93.445852 224.64 
L 96.489489 224.64 
L 96.489489 134.051121 
L 93.445852 134.051121 
z
" style="fill:#1f77b4;fill-opacity:0.75;stroke:#000000;stroke-linejoin:miter;stroke-width:0.304364;"/>
   </g>
   <g id="patch_8">
    <path clip-path="url(#p249f214828)" d="M 96.489489 224.64 
L 99.533125 224.64 
L 99.533125 119.293315 
L 96.489489 119.293315 
z
" style="fill:#1f77b4;fill-opacity:0.75;stroke:#000000;stroke-linejoin:miter;stroke-width:0.304364;"/>
   </g>
   <g id="patch_9">
    <path clip-path="url(#p249f214828)" d="M 99.533125 224.64 
L 102.576761 224.64 
L 102.576761 17.554286 
L 99.533125 17.554286 
z
" style="fill:#1f77b4;fill-opacity:0.75;stroke:#000000;stroke-linejoin:miter;stroke-width:0.304364;"/>
   </g>
   <g id="patch_10">
    <path clip-path="url(#p249f214828)" d="M 102.576761 224.64 
L 105.620398 224.64 
L 105.620398 138.059149 
L 102.576761 138.059149 
z
" style="fill:#1f77b4;fill-opacity:0.75;stroke:#000000;stroke-linejoin:miter;stroke-width:0.304364;"/>
   </g>
   <g id="patch_11">
    <path clip-path="url(#p249f214828)" d="M 105.620398 224.64 
L 108.664034 224.64 
L 108.664034 150.459207 
L 105.620398 150.459207 
z
" style="fill:#1f77b4;fill-opacity:0.75;stroke:#000000;stroke-linejoin:miter;stroke-width:0.304364;"/>
   </g>
   <g id="patch_12">
    <path clip-path="url(#p249f214828)" d="M 108.664034 224.64 
L 111.70767 224.64 
L 111.70767 109.82358 
L 108.664034 109.82358 
z
" style="fill:#1f77b4;fill-opacity:0.75;stroke:#000000;stroke-linejoin:miter;stroke-width:0.304364;"/>
   </g>
   <g id="patch_13">
    <path clip-path="url(#p249f214828)" d="M 111.70767 224.64 
L 114.751307 224.64 
L 114.751307 181.095575 
L 111.70767 181.095575 
z
" style="fill:#1f77b4;fill-opacity:0.75;stroke:#000000;stroke-linejoin:miter;stroke-width:0.304364;"/>
   </g>
   <g id="patch_14">
    <path clip-path="url(#p249f214828)" d="M 114.751307 224.64 
L 117.794943 224.64 
L 117.794943 188.224783 
L 114.751307 188.224783 
z
" style="fill:#1f77b4;fill-opacity:0.75;stroke:#000000;stroke-linejoin:miter;stroke-width:0.304364;"/>
   </g>
   <g id="patch_15">
    <path clip-path="url(#p249f214828)" d="M 117.794943 224.64 
L 120.83858 224.64 
L 120.83858 166.880208 
L 117.794943 166.880208 
z
" style="fill:#1f77b4;fill-opacity:0.75;stroke:#000000;stroke-linejoin:miter;stroke-width:0.304364;"/>
   </g>
   <g id="patch_16">
    <path clip-path="url(#p249f214828)" d="M 120.83858 224.64 
L 123.882216 224.64 
L 123.882216 202.034037 
L 120.83858 202.034037 
z
" style="fill:#1f77b4;fill-opacity:0.75;stroke:#000000;stroke-linejoin:miter;stroke-width:0.304364;"/>
   </g>
   <g id="patch_17">
    <path clip-path="url(#p249f214828)" d="M 123.882216 224.64 
L 126.925852 224.64 
L 126.925852 205.007411 
L 123.882216 205.007411 
z
" style="fill:#1f77b4;fill-opacity:0.75;stroke:#000000;stroke-linejoin:miter;stroke-width:0.304364;"/>
   </g>
   <g id="patch_18">
    <path clip-path="url(#p249f214828)" d="M 126.925852 224.64 
L 129.969489 224.64 
L 129.969489 192.343308 
L 126.925852 192.343308 
z
" style="fill:#1f77b4;fill-opacity:0.75;stroke:#000000;stroke-linejoin:miter;stroke-width:0.304364;"/>
   </g>
   <g id="patch_19">
    <path clip-path="url(#p249f214828)" d="M 129.969489 224.64 
L 133.013125 224.64 
L 133.013125 210.988599 
L 129.969489 210.988599 
z
" style="fill:#1f77b4;fill-opacity:0.75;stroke:#000000;stroke-linejoin:miter;stroke-width:0.304364;"/>
   </g>
   <g id="patch_20">
    <path clip-path="url(#p249f214828)" d="M 133.013125 224.64 
L 136.056761 224.64 
L 136.056761 212.948844 
L 133.013125 212.948844 
z
" style="fill:#1f77b4;fill-opacity:0.75;stroke:#000000;stroke-linejoin:miter;stroke-width:0.304364;"/>
   </g>
   <g id="patch_21">
    <path clip-path="url(#p249f214828)" d="M 136.056761 224.64 
L 139.100398 224.64 
L 139.100398 204.822293 
L 136.056761 204.822293 
z
" style="fill:#1f77b4;fill-opacity:0.75;stroke:#000000;stroke-linejoin:miter;stroke-width:0.304364;"/>
   </g>
   <g id="patch_22">
    <path clip-path="url(#p249f214828)" d="M 139.100398 224.64 
L 142.144034 224.64 
L 142.144034 216.715787 
L 139.100398 216.715787 
z
" style="fill:#1f77b4;fill-opacity:0.75;stroke:#000000;stroke-linejoin:miter;stroke-width:0.304364;"/>
   </g>
   <g id="patch_23">
    <path clip-path="url(#p249f214828)" d="M 142.144034 224.64 
L 145.18767 224.64 
L 145.18767 217.842282 
L 142.144034 217.842282 
z
" style="fill:#1f77b4;fill-opacity:0.75;stroke:#000000;stroke-linejoin:miter;stroke-width:0.304364;"/>
   </g>
   <g id="patch_24">
    <path clip-path="url(#p249f214828)" d="M 145.18767 224.64 
L 148.231307 224.64 
L 148.231307 213.963407 
L 145.18767 213.963407 
z
" style="fill:#1f77b4;fill-opacity:0.75;stroke:#000000;stroke-linejoin:miter;stroke-width:0.304364;"/>
   </g>
   <g id="patch_25">
    <path clip-path="url(#p249f214828)" d="M 148.231307 224.64 
L 151.274943 224.64 
L 151.274943 220.520041 
L 148.231307 220.520041 
z
" style="fill:#1f77b4;fill-opacity:0.75;stroke:#000000;stroke-linejoin:miter;stroke-width:0.304364;"/>
   </g>
   <g id="patch_26">
    <path clip-path="url(#p249f214828)" d="M 151.274943 224.64 
L 154.31858 224.64 
L 154.31858 221.098356 
L 151.274943 221.098356 
z
" style="fill:#1f77b4;fill-opacity:0.75;stroke:#000000;stroke-linejoin:miter;stroke-width:0.304364;"/>
   </g>
   <g id="patch_27">
    <path clip-path="url(#p249f214828)" d="M 154.31858 224.64 
L 157.362216 224.64 
L 157.362216 218.813795 
L 154.31858 218.813795 
z
" style="fill:#1f77b4;fill-opacity:0.75;stroke:#000000;stroke-linejoin:miter;stroke-width:0.304364;"/>
   </g>
   <g id="patch_28">
    <path clip-path="url(#p249f214828)" d="M 157.362216 224.64 
L 160.405852 224.64 
L 160.405852 222.14162 
L 157.362216 222.14162 
z
" style="fill:#1f77b4;fill-opacity:0.75;stroke:#000000;stroke-linejoin:miter;stroke-width:0.304364;"/>
   </g>
   <g id="patch_29">
    <path clip-path="url(#p249f214828)" d="M 160.405852 224.64 
L 163.449489 224.64 
L 163.449489 222.249247 
L 160.405852 222.249247 
z
" style="fill:#1f77b4;fill-opacity:0.75;stroke:#000000;stroke-linejoin:miter;stroke-width:0.304364;"/>
   </g>
   <g id="patch_30">
    <path clip-path="url(#p249f214828)" d="M 163.449489 224.64 
L 166.493125 224.64 
L 166.493125 220.415284 
L 163.449489 220.415284 
z
" style="fill:#1f77b4;fill-opacity:0.75;stroke:#000000;stroke-linejoin:miter;stroke-width:0.304364;"/>
   </g>
   <g id="patch_31">
    <path clip-path="url(#p249f214828)" d="M 166.493125 224.64 
L 169.536761 224.64 
L 169.536761 222.633834 
L 166.493125 222.633834 
z
" style="fill:#1f77b4;fill-opacity:0.75;stroke:#000000;stroke-linejoin:miter;stroke-width:0.304364;"/>
   </g>
   <g id="patch_32">
    <path clip-path="url(#p249f214828)" d="M 169.536761 224.64 
L 172.580398 224.64 
L 172.580398 222.867743 
L 169.536761 222.867743 
z
" style="fill:#1f77b4;fill-opacity:0.75;stroke:#000000;stroke-linejoin:miter;stroke-width:0.304364;"/>
   </g>
   <g id="patch_33">
    <path clip-path="url(#p249f214828)" d="M 172.580398 224.64 
L 175.624034 224.64 
L 175.624034 221.454243 
L 172.580398 221.454243 
z
" style="fill:#1f77b4;fill-opacity:0.75;stroke:#000000;stroke-linejoin:miter;stroke-width:0.304364;"/>
   </g>
   <g id="patch_34">
    <path clip-path="url(#p249f214828)" d="M 175.624034 224.64 
L 178.66767 224.64 
L 178.66767 223.355652 
L 175.624034 223.355652 
z
" style="fill:#1f77b4;fill-opacity:0.75;stroke:#000000;stroke-linejoin:miter;stroke-width:0.304364;"/>
   </g>
   <g id="patch_35">
    <path clip-path="url(#p249f214828)" d="M 178.66767 224.64 
L 181.711307 224.64 
L 181.711307 223.641222 
L 178.66767 223.641222 
z
" style="fill:#1f77b4;fill-opacity:0.75;stroke:#000000;stroke-linejoin:miter;stroke-width:0.304364;"/>
   </g>
   <g id="patch_36">
    <path clip-path="url(#p249f214828)" d="M 181.711307 224.64 
L 184.754943 224.64 
L 184.754943 223.054296 
L 181.711307 223.054296 
z
" style="fill:#1f77b4;fill-opacity:0.75;stroke:#000000;stroke-linejoin:miter;stroke-width:0.304364;"/>
   </g>
   <g id="patch_37">
    <path clip-path="url(#p249f214828)" d="M 184.754943 224.64 
L 187.79858 224.64 
L 187.79858 224.076035 
L 184.754943 224.076035 
z
" style="fill:#1f77b4;fill-opacity:0.75;stroke:#000000;stroke-linejoin:miter;stroke-width:0.304364;"/>
   </g>
   <g id="patch_38">
    <path clip-path="url(#p249f214828)" d="M 187.79858 224.64 
L 190.842216 224.64 
L 190.842216 224.176487 
L 187.79858 224.176487 
z
" style="fill:#1f77b4;fill-opacity:0.75;stroke:#000000;stroke-linejoin:miter;stroke-width:0.304364;"/>
   </g>
   <g id="patch_39">
    <path clip-path="url(#p249f214828)" d="M 190.842216 224.64 
L 193.885852 224.64 
L 193.885852 224.048769 
L 190.842216 224.048769 
z
" style="fill:#1f77b4;fill-opacity:0.75;stroke:#000000;stroke-linejoin:miter;stroke-width:0.304364;"/>
   </g>
   <g id="patch_40">
    <path clip-path="url(#p249f214828)" d="M 193.885852 224.64 
L 196.929489 224.64 
L 196.929489 224.452012 
L 193.885852 224.452012 
z
" style="fill:#1f77b4;fill-opacity:0.75;stroke:#000000;stroke-linejoin:miter;stroke-width:0.304364;"/>
   </g>
   <g id="patch_41">
    <path clip-path="url(#p249f214828)" d="M 196.929489 224.64 
L 199.973125 224.64 
L 199.973125 224.540983 
L 196.929489 224.540983 
z
" style="fill:#1f77b4;fill-opacity:0.75;stroke:#000000;stroke-linejoin:miter;stroke-width:0.304364;"/>
   </g>
   <g id="patch_42">
    <path clip-path="url(#p249f214828)" d="M 199.973125 224.64 
L 203.016761 224.64 
L 203.016761 224.525198 
L 199.973125 224.525198 
z
" style="fill:#1f77b4;fill-opacity:0.75;stroke:#000000;stroke-linejoin:miter;stroke-width:0.304364;"/>
   </g>
   <g id="patch_43">
    <path clip-path="url(#p249f214828)" d="M 203.016761 224.64 
L 206.060398 224.64 
L 206.060398 224.604124 
L 203.016761 224.604124 
z
" style="fill:#1f77b4;fill-opacity:0.75;stroke:#000000;stroke-linejoin:miter;stroke-width:0.304364;"/>
   </g>
   <g id="patch_44">
    <path clip-path="url(#p249f214828)" d="M 206.060398 224.64 
L 209.104034 224.64 
L 209.104034 224.62278 
L 206.060398 224.62278 
z
" style="fill:#1f77b4;fill-opacity:0.75;stroke:#000000;stroke-linejoin:miter;stroke-width:0.304364;"/>
   </g>
   <g id="patch_45">
    <path clip-path="url(#p249f214828)" d="M 209.104034 224.64 
L 212.14767 224.64 
L 212.14767 224.63139 
L 209.104034 224.63139 
z
" style="fill:#1f77b4;fill-opacity:0.75;stroke:#000000;stroke-linejoin:miter;stroke-width:0.304364;"/>
   </g>
   <g id="patch_46">
    <path clip-path="url(#p249f214828)" d="M 212.14767 224.64 
L 215.191307 224.64 
L 215.191307 224.638565 
L 212.14767 224.638565 
z
" style="fill:#1f77b4;fill-opacity:0.75;stroke:#000000;stroke-linejoin:miter;stroke-width:0.304364;"/>
   </g>
   <g id="patch_47">
    <path clip-path="url(#p249f214828)" d="M 215.191307 224.64 
L 218.234943 224.64 
L 218.234943 224.638565 
L 215.191307 224.638565 
z
" style="fill:#1f77b4;fill-opacity:0.75;stroke:#000000;stroke-linejoin:miter;stroke-width:0.304364;"/>
   </g>
   <g id="patch_48">
    <path clip-path="url(#p249f214828)" d="M 218.234943 224.64 
L 221.27858 224.64 
L 221.27858 224.64 
L 218.234943 224.64 
z
" style="fill:#1f77b4;fill-opacity:0.75;stroke:#000000;stroke-linejoin:miter;stroke-width:0.304364;"/>
   </g>
   <g id="patch_49">
    <path clip-path="url(#p249f214828)" d="M 221.27858 224.64 
L 224.322216 224.64 
L 224.322216 224.64 
L 221.27858 224.64 
z
" style="fill:#1f77b4;fill-opacity:0.75;stroke:#000000;stroke-linejoin:miter;stroke-width:0.304364;"/>
   </g>
   <g id="patch_50">
    <path clip-path="url(#p249f214828)" d="M 224.322216 224.64 
L 227.365852 224.64 
L 227.365852 224.64 
L 224.322216 224.64 
z
" style="fill:#1f77b4;fill-opacity:0.75;stroke:#000000;stroke-linejoin:miter;stroke-width:0.304364;"/>
   </g>
   <g id="patch_51">
    <path clip-path="url(#p249f214828)" d="M 227.365852 224.64 
L 230.409489 224.64 
L 230.409489 224.638565 
L 227.365852 224.638565 
z
" style="fill:#1f77b4;fill-opacity:0.75;stroke:#000000;stroke-linejoin:miter;stroke-width:0.304364;"/>
   </g>
   <g id="patch_52">
    <path clip-path="url(#p249f214828)" d="M 230.409489 224.64 
L 233.453125 224.64 
L 233.453125 224.64 
L 230.409489 224.64 
z
" style="fill:#1f77b4;fill-opacity:0.75;stroke:#000000;stroke-linejoin:miter;stroke-width:0.304364;"/>
   </g>
   <g id="patch_53">
    <path clip-path="url(#p249f214828)" d="M 233.453125 224.64 
L 236.496761 224.64 
L 236.496761 224.64 
L 233.453125 224.64 
z
" style="fill:#1f77b4;fill-opacity:0.75;stroke:#000000;stroke-linejoin:miter;stroke-width:0.304364;"/>
   </g>
   <g id="patch_54">
    <path clip-path="url(#p249f214828)" d="M 236.496761 224.64 
L 239.540398 224.64 
L 239.540398 224.64 
L 236.496761 224.64 
z
" style="fill:#1f77b4;fill-opacity:0.75;stroke:#000000;stroke-linejoin:miter;stroke-width:0.304364;"/>
   </g>
   <g id="patch_55">
    <path clip-path="url(#p249f214828)" d="M 239.540398 224.64 
L 242.584034 224.64 
L 242.584034 224.64 
L 239.540398 224.64 
z
" style="fill:#1f77b4;fill-opacity:0.75;stroke:#000000;stroke-linejoin:miter;stroke-width:0.304364;"/>
   </g>
   <g id="patch_56">
    <path clip-path="url(#p249f214828)" d="M 242.584034 224.64 
L 245.62767 224.64 
L 245.62767 224.64 
L 242.584034 224.64 
z
" style="fill:#1f77b4;fill-opacity:0.75;stroke:#000000;stroke-linejoin:miter;stroke-width:0.304364;"/>
   </g>
   <g id="patch_57">
    <path clip-path="url(#p249f214828)" d="M 245.62767 224.64 
L 248.671307 224.64 
L 248.671307 224.64 
L 245.62767 224.64 
z
" style="fill:#1f77b4;fill-opacity:0.75;stroke:#000000;stroke-linejoin:miter;stroke-width:0.304364;"/>
   </g>
   <g id="patch_58">
    <path clip-path="url(#p249f214828)" d="M 248.671307 224.64 
L 251.714943 224.64 
L 251.714943 224.64 
L 248.671307 224.64 
z
" style="fill:#1f77b4;fill-opacity:0.75;stroke:#000000;stroke-linejoin:miter;stroke-width:0.304364;"/>
   </g>
   <g id="patch_59">
    <path clip-path="url(#p249f214828)" d="M 251.714943 224.64 
L 254.75858 224.64 
L 254.75858 224.64 
L 251.714943 224.64 
z
" style="fill:#1f77b4;fill-opacity:0.75;stroke:#000000;stroke-linejoin:miter;stroke-width:0.304364;"/>
   </g>
   <g id="patch_60">
    <path clip-path="url(#p249f214828)" d="M 254.75858 224.64 
L 257.802216 224.64 
L 257.802216 224.64 
L 254.75858 224.64 
z
" style="fill:#1f77b4;fill-opacity:0.75;stroke:#000000;stroke-linejoin:miter;stroke-width:0.304364;"/>
   </g>
   <g id="patch_61">
    <path clip-path="url(#p249f214828)" d="M 257.802216 224.64 
L 260.845852 224.64 
L 260.845852 224.64 
L 257.802216 224.64 
z
" style="fill:#1f77b4;fill-opacity:0.75;stroke:#000000;stroke-linejoin:miter;stroke-width:0.304364;"/>
   </g>
   <g id="patch_62">
    <path clip-path="url(#p249f214828)" d="M 260.845852 224.64 
L 263.889489 224.64 
L 263.889489 224.64 
L 260.845852 224.64 
z
" style="fill:#1f77b4;fill-opacity:0.75;stroke:#000000;stroke-linejoin:miter;stroke-width:0.304364;"/>
   </g>
   <g id="patch_63">
    <path clip-path="url(#p249f214828)" d="M 263.889489 224.64 
L 266.933125 224.64 
L 266.933125 224.64 
L 263.889489 224.64 
z
" style="fill:#1f77b4;fill-opacity:0.75;stroke:#000000;stroke-linejoin:miter;stroke-width:0.304364;"/>
   </g>
   <g id="patch_64">
    <path clip-path="url(#p249f214828)" d="M 266.933125 224.64 
L 269.976761 224.64 
L 269.976761 224.64 
L 266.933125 224.64 
z
" style="fill:#1f77b4;fill-opacity:0.75;stroke:#000000;stroke-linejoin:miter;stroke-width:0.304364;"/>
   </g>
   <g id="patch_65">
    <path clip-path="url(#p249f214828)" d="M 269.976761 224.64 
L 273.020398 224.64 
L 273.020398 224.64 
L 269.976761 224.64 
z
" style="fill:#1f77b4;fill-opacity:0.75;stroke:#000000;stroke-linejoin:miter;stroke-width:0.304364;"/>
   </g>
   <g id="patch_66">
    <path clip-path="url(#p249f214828)" d="M 273.020398 224.64 
L 276.064034 224.64 
L 276.064034 224.64 
L 273.020398 224.64 
z
" style="fill:#1f77b4;fill-opacity:0.75;stroke:#000000;stroke-linejoin:miter;stroke-width:0.304364;"/>
   </g>
   <g id="patch_67">
    <path clip-path="url(#p249f214828)" d="M 276.064034 224.64 
L 279.10767 224.64 
L 279.10767 224.64 
L 276.064034 224.64 
z
" style="fill:#1f77b4;fill-opacity:0.75;stroke:#000000;stroke-linejoin:miter;stroke-width:0.304364;"/>
   </g>
   <g id="patch_68">
    <path clip-path="url(#p249f214828)" d="M 279.10767 224.64 
L 282.151307 224.64 
L 282.151307 224.64 
L 279.10767 224.64 
z
" style="fill:#1f77b4;fill-opacity:0.75;stroke:#000000;stroke-linejoin:miter;stroke-width:0.304364;"/>
   </g>
   <g id="patch_69">
    <path clip-path="url(#p249f214828)" d="M 282.151307 224.64 
L 285.194943 224.64 
L 285.194943 224.64 
L 282.151307 224.64 
z
" style="fill:#1f77b4;fill-opacity:0.75;stroke:#000000;stroke-linejoin:miter;stroke-width:0.304364;"/>
   </g>
   <g id="patch_70">
    <path clip-path="url(#p249f214828)" d="M 285.194943 224.64 
L 288.23858 224.64 
L 288.23858 224.64 
L 285.194943 224.64 
z
" style="fill:#1f77b4;fill-opacity:0.75;stroke:#000000;stroke-linejoin:miter;stroke-width:0.304364;"/>
   </g>
   <g id="patch_71">
    <path clip-path="url(#p249f214828)" d="M 288.23858 224.64 
L 291.282216 224.64 
L 291.282216 224.64 
L 288.23858 224.64 
z
" style="fill:#1f77b4;fill-opacity:0.75;stroke:#000000;stroke-linejoin:miter;stroke-width:0.304364;"/>
   </g>
   <g id="patch_72">
    <path clip-path="url(#p249f214828)" d="M 291.282216 224.64 
L 294.325852 224.64 
L 294.325852 224.64 
L 291.282216 224.64 
z
" style="fill:#1f77b4;fill-opacity:0.75;stroke:#000000;stroke-linejoin:miter;stroke-width:0.304364;"/>
   </g>
   <g id="patch_73">
    <path clip-path="url(#p249f214828)" d="M 294.325852 224.64 
L 297.369489 224.64 
L 297.369489 224.64 
L 294.325852 224.64 
z
" style="fill:#1f77b4;fill-opacity:0.75;stroke:#000000;stroke-linejoin:miter;stroke-width:0.304364;"/>
   </g>
   <g id="patch_74">
    <path clip-path="url(#p249f214828)" d="M 297.369489 224.64 
L 300.413125 224.64 
L 300.413125 224.64 
L 297.369489 224.64 
z
" style="fill:#1f77b4;fill-opacity:0.75;stroke:#000000;stroke-linejoin:miter;stroke-width:0.304364;"/>
   </g>
   <g id="patch_75">
    <path clip-path="url(#p249f214828)" d="M 300.413125 224.64 
L 303.456761 224.64 
L 303.456761 224.64 
L 300.413125 224.64 
z
" style="fill:#1f77b4;fill-opacity:0.75;stroke:#000000;stroke-linejoin:miter;stroke-width:0.304364;"/>
   </g>
   <g id="patch_76">
    <path clip-path="url(#p249f214828)" d="M 303.456761 224.64 
L 306.500398 224.64 
L 306.500398 224.64 
L 303.456761 224.64 
z
" style="fill:#1f77b4;fill-opacity:0.75;stroke:#000000;stroke-linejoin:miter;stroke-width:0.304364;"/>
   </g>
   <g id="patch_77">
    <path clip-path="url(#p249f214828)" d="M 306.500398 224.64 
L 309.544034 224.64 
L 309.544034 224.64 
L 306.500398 224.64 
z
" style="fill:#1f77b4;fill-opacity:0.75;stroke:#000000;stroke-linejoin:miter;stroke-width:0.304364;"/>
   </g>
   <g id="patch_78">
    <path clip-path="url(#p249f214828)" d="M 309.544034 224.64 
L 312.58767 224.64 
L 312.58767 224.64 
L 309.544034 224.64 
z
" style="fill:#1f77b4;fill-opacity:0.75;stroke:#000000;stroke-linejoin:miter;stroke-width:0.304364;"/>
   </g>
   <g id="patch_79">
    <path clip-path="url(#p249f214828)" d="M 312.58767 224.64 
L 315.631307 224.64 
L 315.631307 224.64 
L 312.58767 224.64 
z
" style="fill:#1f77b4;fill-opacity:0.75;stroke:#000000;stroke-linejoin:miter;stroke-width:0.304364;"/>
   </g>
   <g id="patch_80">
    <path clip-path="url(#p249f214828)" d="M 315.631307 224.64 
L 318.674943 224.64 
L 318.674943 224.64 
L 315.631307 224.64 
z
" style="fill:#1f77b4;fill-opacity:0.75;stroke:#000000;stroke-linejoin:miter;stroke-width:0.304364;"/>
   </g>
   <g id="patch_81">
    <path clip-path="url(#p249f214828)" d="M 318.674943 224.64 
L 321.71858 224.64 
L 321.71858 224.64 
L 318.674943 224.64 
z
" style="fill:#1f77b4;fill-opacity:0.75;stroke:#000000;stroke-linejoin:miter;stroke-width:0.304364;"/>
   </g>
   <g id="patch_82">
    <path clip-path="url(#p249f214828)" d="M 321.71858 224.64 
L 324.762216 224.64 
L 324.762216 224.64 
L 321.71858 224.64 
z
" style="fill:#1f77b4;fill-opacity:0.75;stroke:#000000;stroke-linejoin:miter;stroke-width:0.304364;"/>
   </g>
   <g id="patch_83">
    <path clip-path="url(#p249f214828)" d="M 324.762216 224.64 
L 327.805852 224.64 
L 327.805852 224.64 
L 324.762216 224.64 
z
" style="fill:#1f77b4;fill-opacity:0.75;stroke:#000000;stroke-linejoin:miter;stroke-width:0.304364;"/>
   </g>
   <g id="patch_84">
    <path clip-path="url(#p249f214828)" d="M 327.805852 224.64 
L 330.849489 224.64 
L 330.849489 224.64 
L 327.805852 224.64 
z
" style="fill:#1f77b4;fill-opacity:0.75;stroke:#000000;stroke-linejoin:miter;stroke-width:0.304364;"/>
   </g>
   <g id="patch_85">
    <path clip-path="url(#p249f214828)" d="M 330.849489 224.64 
L 333.893125 224.64 
L 333.893125 224.64 
L 330.849489 224.64 
z
" style="fill:#1f77b4;fill-opacity:0.75;stroke:#000000;stroke-linejoin:miter;stroke-width:0.304364;"/>
   </g>
   <g id="patch_86">
    <path clip-path="url(#p249f214828)" d="M 333.893125 224.64 
L 336.936761 224.64 
L 336.936761 224.64 
L 333.893125 224.64 
z
" style="fill:#1f77b4;fill-opacity:0.75;stroke:#000000;stroke-linejoin:miter;stroke-width:0.304364;"/>
   </g>
   <g id="patch_87">
    <path clip-path="url(#p249f214828)" d="M 336.936761 224.64 
L 339.980398 224.64 
L 339.980398 224.64 
L 336.936761 224.64 
z
" style="fill:#1f77b4;fill-opacity:0.75;stroke:#000000;stroke-linejoin:miter;stroke-width:0.304364;"/>
   </g>
   <g id="patch_88">
    <path clip-path="url(#p249f214828)" d="M 339.980398 224.64 
L 343.024034 224.64 
L 343.024034 224.64 
L 339.980398 224.64 
z
" style="fill:#1f77b4;fill-opacity:0.75;stroke:#000000;stroke-linejoin:miter;stroke-width:0.304364;"/>
   </g>
   <g id="patch_89">
    <path clip-path="url(#p249f214828)" d="M 343.024034 224.64 
L 346.06767 224.64 
L 346.06767 224.64 
L 343.024034 224.64 
z
" style="fill:#1f77b4;fill-opacity:0.75;stroke:#000000;stroke-linejoin:miter;stroke-width:0.304364;"/>
   </g>
   <g id="patch_90">
    <path clip-path="url(#p249f214828)" d="M 346.06767 224.64 
L 349.111307 224.64 
L 349.111307 224.64 
L 346.06767 224.64 
z
" style="fill:#1f77b4;fill-opacity:0.75;stroke:#000000;stroke-linejoin:miter;stroke-width:0.304364;"/>
   </g>
   <g id="patch_91">
    <path clip-path="url(#p249f214828)" d="M 349.111307 224.64 
L 352.154943 224.64 
L 352.154943 224.64 
L 349.111307 224.64 
z
" style="fill:#1f77b4;fill-opacity:0.75;stroke:#000000;stroke-linejoin:miter;stroke-width:0.304364;"/>
   </g>
   <g id="patch_92">
    <path clip-path="url(#p249f214828)" d="M 352.154943 224.64 
L 355.19858 224.64 
L 355.19858 224.64 
L 352.154943 224.64 
z
" style="fill:#1f77b4;fill-opacity:0.75;stroke:#000000;stroke-linejoin:miter;stroke-width:0.304364;"/>
   </g>
   <g id="patch_93">
    <path clip-path="url(#p249f214828)" d="M 355.19858 224.64 
L 358.242216 224.64 
L 358.242216 224.64 
L 355.19858 224.64 
z
" style="fill:#1f77b4;fill-opacity:0.75;stroke:#000000;stroke-linejoin:miter;stroke-width:0.304364;"/>
   </g>
   <g id="patch_94">
    <path clip-path="url(#p249f214828)" d="M 358.242216 224.64 
L 361.285852 224.64 
L 361.285852 224.64 
L 358.242216 224.64 
z
" style="fill:#1f77b4;fill-opacity:0.75;stroke:#000000;stroke-linejoin:miter;stroke-width:0.304364;"/>
   </g>
   <g id="patch_95">
    <path clip-path="url(#p249f214828)" d="M 361.285852 224.64 
L 364.329489 224.64 
L 364.329489 224.64 
L 361.285852 224.64 
z
" style="fill:#1f77b4;fill-opacity:0.75;stroke:#000000;stroke-linejoin:miter;stroke-width:0.304364;"/>
   </g>
   <g id="patch_96">
    <path clip-path="url(#p249f214828)" d="M 364.329489 224.64 
L 367.373125 224.64 
L 367.373125 224.64 
L 364.329489 224.64 
z
" style="fill:#1f77b4;fill-opacity:0.75;stroke:#000000;stroke-linejoin:miter;stroke-width:0.304364;"/>
   </g>
   <g id="patch_97">
    <path clip-path="url(#p249f214828)" d="M 367.373125 224.64 
L 370.416761 224.64 
L 370.416761 224.64 
L 367.373125 224.64 
z
" style="fill:#1f77b4;fill-opacity:0.75;stroke:#000000;stroke-linejoin:miter;stroke-width:0.304364;"/>
   </g>
   <g id="patch_98">
    <path clip-path="url(#p249f214828)" d="M 370.416761 224.64 
L 373.460398 224.64 
L 373.460398 224.64 
L 370.416761 224.64 
z
" style="fill:#1f77b4;fill-opacity:0.75;stroke:#000000;stroke-linejoin:miter;stroke-width:0.304364;"/>
   </g>
   <g id="patch_99">
    <path clip-path="url(#p249f214828)" d="M 373.460398 224.64 
L 376.504034 224.64 
L 376.504034 224.64 
L 373.460398 224.64 
z
" style="fill:#1f77b4;fill-opacity:0.75;stroke:#000000;stroke-linejoin:miter;stroke-width:0.304364;"/>
   </g>
   <g id="patch_100">
    <path clip-path="url(#p249f214828)" d="M 376.504034 224.64 
L 379.54767 224.64 
L 379.54767 224.64 
L 376.504034 224.64 
z
" style="fill:#1f77b4;fill-opacity:0.75;stroke:#000000;stroke-linejoin:miter;stroke-width:0.304364;"/>
   </g>
   <g id="patch_101">
    <path clip-path="url(#p249f214828)" d="M 379.54767 224.64 
L 382.591307 224.64 
L 382.591307 224.64 
L 379.54767 224.64 
z
" style="fill:#1f77b4;fill-opacity:0.75;stroke:#000000;stroke-linejoin:miter;stroke-width:0.304364;"/>
   </g>
   <g id="patch_102">
    <path clip-path="url(#p249f214828)" d="M 382.591307 224.64 
L 385.634943 224.64 
L 385.634943 224.638565 
L 382.591307 224.638565 
z
" style="fill:#1f77b4;fill-opacity:0.75;stroke:#000000;stroke-linejoin:miter;stroke-width:0.304364;"/>
   </g>
   <g id="matplotlib.axis_1">
    <g id="xtick_1">
     <g id="line2d_1">
      <defs>
       <path d="M 0 0 
L 0 3.5 
" id="m9cf8c62ddd" style="stroke:#000000;stroke-width:0.8;"/>
      </defs>
      <g>
       <use style="stroke:#000000;stroke-width:0.8;" x="78.982858" xlink:href="#m9cf8c62ddd" y="224.64"/>
      </g>
     </g>
     <g id="text_1">
      <!-- 0 -->
      <g transform="translate(75.801608 239.238437)scale(0.1 -0.1)">
       <defs>
        <path d="M 31.78125 66.40625 
Q 24.171875 66.40625 20.328125 58.90625 
Q 16.5 51.421875 16.5 36.375 
Q 16.5 21.390625 20.328125 13.890625 
Q 24.171875 6.390625 31.78125 6.390625 
Q 39.453125 6.390625 43.28125 13.890625 
Q 47.125 21.390625 47.125 36.375 
Q 47.125 51.421875 43.28125 58.90625 
Q 39.453125 66.40625 31.78125 66.40625 
z
M 31.78125 74.21875 
Q 44.046875 74.21875 50.515625 64.515625 
Q 56.984375 54.828125 56.984375 36.375 
Q 56.984375 17.96875 50.515625 8.265625 
Q 44.046875 -1.421875 31.78125 -1.421875 
Q 19.53125 -1.421875 13.0625 8.265625 
Q 6.59375 17.96875 6.59375 36.375 
Q 6.59375 54.828125 13.0625 64.515625 
Q 19.53125 74.21875 31.78125 74.21875 
z
" id="DejaVuSans-48"/>
       </defs>
       <use xlink:href="#DejaVuSans-48"/>
      </g>
     </g>
    </g>
    <g id="xtick_2">
     <g id="line2d_2">
      <g>
       <use style="stroke:#000000;stroke-width:0.8;" x="124.751826" xlink:href="#m9cf8c62ddd" y="224.64"/>
      </g>
     </g>
     <g id="text_2">
      <!-- 20 -->
      <g transform="translate(118.389326 239.238437)scale(0.1 -0.1)">
       <defs>
        <path d="M 19.1875 8.296875 
L 53.609375 8.296875 
L 53.609375 0 
L 7.328125 0 
L 7.328125 8.296875 
Q 12.9375 14.109375 22.625 23.890625 
Q 32.328125 33.6875 34.8125 36.53125 
Q 39.546875 41.84375 41.421875 45.53125 
Q 43.3125 49.21875 43.3125 52.78125 
Q 43.3125 58.59375 39.234375 62.25 
Q 35.15625 65.921875 28.609375 65.921875 
Q 23.96875 65.921875 18.8125 64.3125 
Q 13.671875 62.703125 7.8125 59.421875 
L 7.8125 69.390625 
Q 13.765625 71.78125 18.9375 73 
Q 24.125 74.21875 28.421875 74.21875 
Q 39.75 74.21875 46.484375 68.546875 
Q 53.21875 62.890625 53.21875 53.421875 
Q 53.21875 48.921875 51.53125 44.890625 
Q 49.859375 40.875 45.40625 35.40625 
Q 44.1875 33.984375 37.640625 27.21875 
Q 31.109375 20.453125 19.1875 8.296875 
z
" id="DejaVuSans-50"/>
       </defs>
       <use xlink:href="#DejaVuSans-50"/>
       <use x="63.623047" xlink:href="#DejaVuSans-48"/>
      </g>
     </g>
    </g>
    <g id="xtick_3">
     <g id="line2d_3">
      <g>
       <use style="stroke:#000000;stroke-width:0.8;" x="170.520794" xlink:href="#m9cf8c62ddd" y="224.64"/>
      </g>
     </g>
     <g id="text_3">
      <!-- 40 -->
      <g transform="translate(164.158294 239.238437)scale(0.1 -0.1)">
       <defs>
        <path d="M 37.796875 64.3125 
L 12.890625 25.390625 
L 37.796875 25.390625 
z
M 35.203125 72.90625 
L 47.609375 72.90625 
L 47.609375 25.390625 
L 58.015625 25.390625 
L 58.015625 17.1875 
L 47.609375 17.1875 
L 47.609375 0 
L 37.796875 0 
L 37.796875 17.1875 
L 4.890625 17.1875 
L 4.890625 26.703125 
z
" id="DejaVuSans-52"/>
       </defs>
       <use xlink:href="#DejaVuSans-52"/>
       <use x="63.623047" xlink:href="#DejaVuSans-48"/>
      </g>
     </g>
    </g>
    <g id="xtick_4">
     <g id="line2d_4">
      <g>
       <use style="stroke:#000000;stroke-width:0.8;" x="216.289762" xlink:href="#m9cf8c62ddd" y="224.64"/>
      </g>
     </g>
     <g id="text_4">
      <!-- 60 -->
      <g transform="translate(209.927262 239.238437)scale(0.1 -0.1)">
       <defs>
        <path d="M 33.015625 40.375 
Q 26.375 40.375 22.484375 35.828125 
Q 18.609375 31.296875 18.609375 23.390625 
Q 18.609375 15.53125 22.484375 10.953125 
Q 26.375 6.390625 33.015625 6.390625 
Q 39.65625 6.390625 43.53125 10.953125 
Q 47.40625 15.53125 47.40625 23.390625 
Q 47.40625 31.296875 43.53125 35.828125 
Q 39.65625 40.375 33.015625 40.375 
z
M 52.59375 71.296875 
L 52.59375 62.3125 
Q 48.875 64.0625 45.09375 64.984375 
Q 41.3125 65.921875 37.59375 65.921875 
Q 27.828125 65.921875 22.671875 59.328125 
Q 17.53125 52.734375 16.796875 39.40625 
Q 19.671875 43.65625 24.015625 45.921875 
Q 28.375 48.1875 33.59375 48.1875 
Q 44.578125 48.1875 50.953125 41.515625 
Q 57.328125 34.859375 57.328125 23.390625 
Q 57.328125 12.15625 50.6875 5.359375 
Q 44.046875 -1.421875 33.015625 -1.421875 
Q 20.359375 -1.421875 13.671875 8.265625 
Q 6.984375 17.96875 6.984375 36.375 
Q 6.984375 53.65625 15.1875 63.9375 
Q 23.390625 74.21875 37.203125 74.21875 
Q 40.921875 74.21875 44.703125 73.484375 
Q 48.484375 72.75 52.59375 71.296875 
z
" id="DejaVuSans-54"/>
       </defs>
       <use xlink:href="#DejaVuSans-54"/>
       <use x="63.623047" xlink:href="#DejaVuSans-48"/>
      </g>
     </g>
    </g>
    <g id="xtick_5">
     <g id="line2d_5">
      <g>
       <use style="stroke:#000000;stroke-width:0.8;" x="262.05873" xlink:href="#m9cf8c62ddd" y="224.64"/>
      </g>
     </g>
     <g id="text_5">
      <!-- 80 -->
      <g transform="translate(255.69623 239.238437)scale(0.1 -0.1)">
       <defs>
        <path d="M 31.78125 34.625 
Q 24.75 34.625 20.71875 30.859375 
Q 16.703125 27.09375 16.703125 20.515625 
Q 16.703125 13.921875 20.71875 10.15625 
Q 24.75 6.390625 31.78125 6.390625 
Q 38.8125 6.390625 42.859375 10.171875 
Q 46.921875 13.96875 46.921875 20.515625 
Q 46.921875 27.09375 42.890625 30.859375 
Q 38.875 34.625 31.78125 34.625 
z
M 21.921875 38.8125 
Q 15.578125 40.375 12.03125 44.71875 
Q 8.5 49.078125 8.5 55.328125 
Q 8.5 64.0625 14.71875 69.140625 
Q 20.953125 74.21875 31.78125 74.21875 
Q 42.671875 74.21875 48.875 69.140625 
Q 55.078125 64.0625 55.078125 55.328125 
Q 55.078125 49.078125 51.53125 44.71875 
Q 48 40.375 41.703125 38.8125 
Q 48.828125 37.15625 52.796875 32.3125 
Q 56.78125 27.484375 56.78125 20.515625 
Q 56.78125 9.90625 50.3125 4.234375 
Q 43.84375 -1.421875 31.78125 -1.421875 
Q 19.734375 -1.421875 13.25 4.234375 
Q 6.78125 9.90625 6.78125 20.515625 
Q 6.78125 27.484375 10.78125 32.3125 
Q 14.796875 37.15625 21.921875 38.8125 
z
M 18.3125 54.390625 
Q 18.3125 48.734375 21.84375 45.5625 
Q 25.390625 42.390625 31.78125 42.390625 
Q 38.140625 42.390625 41.71875 45.5625 
Q 45.3125 48.734375 45.3125 54.390625 
Q 45.3125 60.0625 41.71875 63.234375 
Q 38.140625 66.40625 31.78125 66.40625 
Q 25.390625 66.40625 21.84375 63.234375 
Q 18.3125 60.0625 18.3125 54.390625 
z
" id="DejaVuSans-56"/>
       </defs>
       <use xlink:href="#DejaVuSans-56"/>
       <use x="63.623047" xlink:href="#DejaVuSans-48"/>
      </g>
     </g>
    </g>
    <g id="xtick_6">
     <g id="line2d_6">
      <g>
       <use style="stroke:#000000;stroke-width:0.8;" x="307.827698" xlink:href="#m9cf8c62ddd" y="224.64"/>
      </g>
     </g>
     <g id="text_6">
      <!-- 100 -->
      <g transform="translate(298.283948 239.238437)scale(0.1 -0.1)">
       <defs>
        <path d="M 12.40625 8.296875 
L 28.515625 8.296875 
L 28.515625 63.921875 
L 10.984375 60.40625 
L 10.984375 69.390625 
L 28.421875 72.90625 
L 38.28125 72.90625 
L 38.28125 8.296875 
L 54.390625 8.296875 
L 54.390625 0 
L 12.40625 0 
z
" id="DejaVuSans-49"/>
       </defs>
       <use xlink:href="#DejaVuSans-49"/>
       <use x="63.623047" xlink:href="#DejaVuSans-48"/>
       <use x="127.246094" xlink:href="#DejaVuSans-48"/>
      </g>
     </g>
    </g>
    <g id="xtick_7">
     <g id="line2d_7">
      <g>
       <use style="stroke:#000000;stroke-width:0.8;" x="353.596666" xlink:href="#m9cf8c62ddd" y="224.64"/>
      </g>
     </g>
     <g id="text_7">
      <!-- 120 -->
      <g transform="translate(344.052916 239.238437)scale(0.1 -0.1)">
       <use xlink:href="#DejaVuSans-49"/>
       <use x="63.623047" xlink:href="#DejaVuSans-50"/>
       <use x="127.246094" xlink:href="#DejaVuSans-48"/>
      </g>
     </g>
    </g>
    <g id="xtick_8">
     <g id="line2d_8">
      <g>
       <use style="stroke:#000000;stroke-width:0.8;" x="399.365634" xlink:href="#m9cf8c62ddd" y="224.64"/>
      </g>
     </g>
     <g id="text_8">
      <!-- 140 -->
      <g transform="translate(389.821884 239.238437)scale(0.1 -0.1)">
       <use xlink:href="#DejaVuSans-49"/>
       <use x="63.623047" xlink:href="#DejaVuSans-52"/>
       <use x="127.246094" xlink:href="#DejaVuSans-48"/>
      </g>
     </g>
    </g>
    <g id="text_9">
     <!-- len -->
     <g transform="translate(225.81875 252.916562)scale(0.1 -0.1)">
      <defs>
       <path d="M 9.421875 75.984375 
L 18.40625 75.984375 
L 18.40625 0 
L 9.421875 0 
z
" id="DejaVuSans-108"/>
       <path d="M 56.203125 29.59375 
L 56.203125 25.203125 
L 14.890625 25.203125 
Q 15.484375 15.921875 20.484375 11.0625 
Q 25.484375 6.203125 34.421875 6.203125 
Q 39.59375 6.203125 44.453125 7.46875 
Q 49.3125 8.734375 54.109375 11.28125 
L 54.109375 2.78125 
Q 49.265625 0.734375 44.1875 -0.34375 
Q 39.109375 -1.421875 33.890625 -1.421875 
Q 20.796875 -1.421875 13.15625 6.1875 
Q 5.515625 13.8125 5.515625 26.8125 
Q 5.515625 40.234375 12.765625 48.109375 
Q 20.015625 56 32.328125 56 
Q 43.359375 56 49.78125 48.890625 
Q 56.203125 41.796875 56.203125 29.59375 
z
M 47.21875 32.234375 
Q 47.125 39.59375 43.09375 43.984375 
Q 39.0625 48.390625 32.421875 48.390625 
Q 24.90625 48.390625 20.390625 44.140625 
Q 15.875 39.890625 15.1875 32.171875 
z
" id="DejaVuSans-101"/>
       <path d="M 54.890625 33.015625 
L 54.890625 0 
L 45.90625 0 
L 45.90625 32.71875 
Q 45.90625 40.484375 42.875 44.328125 
Q 39.84375 48.1875 33.796875 48.1875 
Q 26.515625 48.1875 22.3125 43.546875 
Q 18.109375 38.921875 18.109375 30.90625 
L 18.109375 0 
L 9.078125 0 
L 9.078125 54.6875 
L 18.109375 54.6875 
L 18.109375 46.1875 
Q 21.34375 51.125 25.703125 53.5625 
Q 30.078125 56 35.796875 56 
Q 45.21875 56 50.046875 50.171875 
Q 54.890625 44.34375 54.890625 33.015625 
z
" id="DejaVuSans-110"/>
      </defs>
      <use xlink:href="#DejaVuSans-108"/>
      <use x="27.783203" xlink:href="#DejaVuSans-101"/>
      <use x="89.306641" xlink:href="#DejaVuSans-110"/>
     </g>
    </g>
   </g>
   <g id="matplotlib.axis_2">
    <g id="ytick_1">
     <g id="line2d_9">
      <defs>
       <path d="M 0 0 
L -3.5 0 
" id="m2ab9496349" style="stroke:#000000;stroke-width:0.8;"/>
      </defs>
      <g>
       <use style="stroke:#000000;stroke-width:0.8;" x="66.053125" xlink:href="#m2ab9496349" y="224.64"/>
      </g>
     </g>
     <g id="text_10">
      <!-- 0 -->
      <g transform="translate(52.690625 228.439219)scale(0.1 -0.1)">
       <use xlink:href="#DejaVuSans-48"/>
      </g>
     </g>
    </g>
    <g id="ytick_2">
     <g id="line2d_10">
      <g>
       <use style="stroke:#000000;stroke-width:0.8;" x="66.053125" xlink:href="#m2ab9496349" y="195.939482"/>
      </g>
     </g>
     <g id="text_11">
      <!-- 20000 -->
      <g transform="translate(27.240625 199.738701)scale(0.1 -0.1)">
       <use xlink:href="#DejaVuSans-50"/>
       <use x="63.623047" xlink:href="#DejaVuSans-48"/>
       <use x="127.246094" xlink:href="#DejaVuSans-48"/>
       <use x="190.869141" xlink:href="#DejaVuSans-48"/>
       <use x="254.492188" xlink:href="#DejaVuSans-48"/>
      </g>
     </g>
    </g>
    <g id="ytick_3">
     <g id="line2d_11">
      <g>
       <use style="stroke:#000000;stroke-width:0.8;" x="66.053125" xlink:href="#m2ab9496349" y="167.238965"/>
      </g>
     </g>
     <g id="text_12">
      <!-- 40000 -->
      <g transform="translate(27.240625 171.038184)scale(0.1 -0.1)">
       <use xlink:href="#DejaVuSans-52"/>
       <use x="63.623047" xlink:href="#DejaVuSans-48"/>
       <use x="127.246094" xlink:href="#DejaVuSans-48"/>
       <use x="190.869141" xlink:href="#DejaVuSans-48"/>
       <use x="254.492188" xlink:href="#DejaVuSans-48"/>
      </g>
     </g>
    </g>
    <g id="ytick_4">
     <g id="line2d_12">
      <g>
       <use style="stroke:#000000;stroke-width:0.8;" x="66.053125" xlink:href="#m2ab9496349" y="138.538447"/>
      </g>
     </g>
     <g id="text_13">
      <!-- 60000 -->
      <g transform="translate(27.240625 142.337666)scale(0.1 -0.1)">
       <use xlink:href="#DejaVuSans-54"/>
       <use x="63.623047" xlink:href="#DejaVuSans-48"/>
       <use x="127.246094" xlink:href="#DejaVuSans-48"/>
       <use x="190.869141" xlink:href="#DejaVuSans-48"/>
       <use x="254.492188" xlink:href="#DejaVuSans-48"/>
      </g>
     </g>
    </g>
    <g id="ytick_5">
     <g id="line2d_13">
      <g>
       <use style="stroke:#000000;stroke-width:0.8;" x="66.053125" xlink:href="#m2ab9496349" y="109.83793"/>
      </g>
     </g>
     <g id="text_14">
      <!-- 80000 -->
      <g transform="translate(27.240625 113.637149)scale(0.1 -0.1)">
       <use xlink:href="#DejaVuSans-56"/>
       <use x="63.623047" xlink:href="#DejaVuSans-48"/>
       <use x="127.246094" xlink:href="#DejaVuSans-48"/>
       <use x="190.869141" xlink:href="#DejaVuSans-48"/>
       <use x="254.492188" xlink:href="#DejaVuSans-48"/>
      </g>
     </g>
    </g>
    <g id="ytick_6">
     <g id="line2d_14">
      <g>
       <use style="stroke:#000000;stroke-width:0.8;" x="66.053125" xlink:href="#m2ab9496349" y="81.137412"/>
      </g>
     </g>
     <g id="text_15">
      <!-- 100000 -->
      <g transform="translate(20.878125 84.936631)scale(0.1 -0.1)">
       <use xlink:href="#DejaVuSans-49"/>
       <use x="63.623047" xlink:href="#DejaVuSans-48"/>
       <use x="127.246094" xlink:href="#DejaVuSans-48"/>
       <use x="190.869141" xlink:href="#DejaVuSans-48"/>
       <use x="254.492188" xlink:href="#DejaVuSans-48"/>
       <use x="318.115234" xlink:href="#DejaVuSans-48"/>
      </g>
     </g>
    </g>
    <g id="ytick_7">
     <g id="line2d_15">
      <g>
       <use style="stroke:#000000;stroke-width:0.8;" x="66.053125" xlink:href="#m2ab9496349" y="52.436895"/>
      </g>
     </g>
     <g id="text_16">
      <!-- 120000 -->
      <g transform="translate(20.878125 56.236113)scale(0.1 -0.1)">
       <use xlink:href="#DejaVuSans-49"/>
       <use x="63.623047" xlink:href="#DejaVuSans-50"/>
       <use x="127.246094" xlink:href="#DejaVuSans-48"/>
       <use x="190.869141" xlink:href="#DejaVuSans-48"/>
       <use x="254.492188" xlink:href="#DejaVuSans-48"/>
       <use x="318.115234" xlink:href="#DejaVuSans-48"/>
      </g>
     </g>
    </g>
    <g id="ytick_8">
     <g id="line2d_16">
      <g>
       <use style="stroke:#000000;stroke-width:0.8;" x="66.053125" xlink:href="#m2ab9496349" y="23.736377"/>
      </g>
     </g>
     <g id="text_17">
      <!-- 140000 -->
      <g transform="translate(20.878125 27.535596)scale(0.1 -0.1)">
       <use xlink:href="#DejaVuSans-49"/>
       <use x="63.623047" xlink:href="#DejaVuSans-52"/>
       <use x="127.246094" xlink:href="#DejaVuSans-48"/>
       <use x="190.869141" xlink:href="#DejaVuSans-48"/>
       <use x="254.492188" xlink:href="#DejaVuSans-48"/>
       <use x="318.115234" xlink:href="#DejaVuSans-48"/>
      </g>
     </g>
    </g>
    <g id="text_18">
     <!-- Count -->
     <g transform="translate(14.798438 130.768437)rotate(-90)scale(0.1 -0.1)">
      <defs>
       <path d="M 64.40625 67.28125 
L 64.40625 56.890625 
Q 59.421875 61.53125 53.78125 63.8125 
Q 48.140625 66.109375 41.796875 66.109375 
Q 29.296875 66.109375 22.65625 58.46875 
Q 16.015625 50.828125 16.015625 36.375 
Q 16.015625 21.96875 22.65625 14.328125 
Q 29.296875 6.6875 41.796875 6.6875 
Q 48.140625 6.6875 53.78125 8.984375 
Q 59.421875 11.28125 64.40625 15.921875 
L 64.40625 5.609375 
Q 59.234375 2.09375 53.4375 0.328125 
Q 47.65625 -1.421875 41.21875 -1.421875 
Q 24.65625 -1.421875 15.125 8.703125 
Q 5.609375 18.84375 5.609375 36.375 
Q 5.609375 53.953125 15.125 64.078125 
Q 24.65625 74.21875 41.21875 74.21875 
Q 47.75 74.21875 53.53125 72.484375 
Q 59.328125 70.75 64.40625 67.28125 
z
" id="DejaVuSans-67"/>
       <path d="M 30.609375 48.390625 
Q 23.390625 48.390625 19.1875 42.75 
Q 14.984375 37.109375 14.984375 27.296875 
Q 14.984375 17.484375 19.15625 11.84375 
Q 23.34375 6.203125 30.609375 6.203125 
Q 37.796875 6.203125 41.984375 11.859375 
Q 46.1875 17.53125 46.1875 27.296875 
Q 46.1875 37.015625 41.984375 42.703125 
Q 37.796875 48.390625 30.609375 48.390625 
z
M 30.609375 56 
Q 42.328125 56 49.015625 48.375 
Q 55.71875 40.765625 55.71875 27.296875 
Q 55.71875 13.875 49.015625 6.21875 
Q 42.328125 -1.421875 30.609375 -1.421875 
Q 18.84375 -1.421875 12.171875 6.21875 
Q 5.515625 13.875 5.515625 27.296875 
Q 5.515625 40.765625 12.171875 48.375 
Q 18.84375 56 30.609375 56 
z
" id="DejaVuSans-111"/>
       <path d="M 8.5 21.578125 
L 8.5 54.6875 
L 17.484375 54.6875 
L 17.484375 21.921875 
Q 17.484375 14.15625 20.5 10.265625 
Q 23.53125 6.390625 29.59375 6.390625 
Q 36.859375 6.390625 41.078125 11.03125 
Q 45.3125 15.671875 45.3125 23.6875 
L 45.3125 54.6875 
L 54.296875 54.6875 
L 54.296875 0 
L 45.3125 0 
L 45.3125 8.40625 
Q 42.046875 3.421875 37.71875 1 
Q 33.40625 -1.421875 27.6875 -1.421875 
Q 18.265625 -1.421875 13.375 4.4375 
Q 8.5 10.296875 8.5 21.578125 
z
M 31.109375 56 
z
" id="DejaVuSans-117"/>
       <path d="M 18.3125 70.21875 
L 18.3125 54.6875 
L 36.8125 54.6875 
L 36.8125 47.703125 
L 18.3125 47.703125 
L 18.3125 18.015625 
Q 18.3125 11.328125 20.140625 9.421875 
Q 21.96875 7.515625 27.59375 7.515625 
L 36.8125 7.515625 
L 36.8125 0 
L 27.59375 0 
Q 17.1875 0 13.234375 3.875 
Q 9.28125 7.765625 9.28125 18.015625 
L 9.28125 47.703125 
L 2.6875 47.703125 
L 2.6875 54.6875 
L 9.28125 54.6875 
L 9.28125 70.21875 
z
" id="DejaVuSans-116"/>
      </defs>
      <use xlink:href="#DejaVuSans-67"/>
      <use x="69.824219" xlink:href="#DejaVuSans-111"/>
      <use x="131.005859" xlink:href="#DejaVuSans-117"/>
      <use x="194.384766" xlink:href="#DejaVuSans-110"/>
      <use x="257.763672" xlink:href="#DejaVuSans-116"/>
     </g>
    </g>
   </g>
   <g id="patch_103">
    <path d="M 66.053125 224.64 
L 66.053125 7.2 
" style="fill:none;stroke:#000000;stroke-linecap:square;stroke-linejoin:miter;stroke-width:0.8;"/>
   </g>
   <g id="patch_104">
    <path d="M 400.853125 224.64 
L 400.853125 7.2 
" style="fill:none;stroke:#000000;stroke-linecap:square;stroke-linejoin:miter;stroke-width:0.8;"/>
   </g>
   <g id="patch_105">
    <path d="M 66.053125 224.64 
L 400.853125 224.64 
" style="fill:none;stroke:#000000;stroke-linecap:square;stroke-linejoin:miter;stroke-width:0.8;"/>
   </g>
   <g id="patch_106">
    <path d="M 66.053125 7.2 
L 400.853125 7.2 
" style="fill:none;stroke:#000000;stroke-linecap:square;stroke-linejoin:miter;stroke-width:0.8;"/>
   </g>
  </g>
 </g>
 <defs>
  <clipPath id="p249f214828">
   <rect height="217.44" width="334.8" x="66.053125" y="7.2"/>
  </clipPath>
 </defs>
</svg>
